<svg xmlns="http://www.w3.org/2000/svg" xmlns:xlink="http://www.w3.org/1999/xlink" width="500" zoomAndPan="magnify" viewBox="0 0 375 187.499995" height="250" preserveAspectRatio="xMidYMid meet" version="1.0"><defs><g/><clipPath id="id1"><path d="M 0.5 0 L 374.5 0 L 374.5 187 L 0.5 187 Z M 0.5 0 " clip-rule="nonzero"/></clipPath><clipPath id="id2"><path d="M 24.59375 31.074219 L 260.214844 31.074219 L 260.214844 155.992188 L 24.59375 155.992188 Z M 24.59375 31.074219 " clip-rule="nonzero"/></clipPath></defs><g clip-path="url(#id1)"><path fill="#ffffff" d="M 0.5 0 L 374.5 0 L 374.5 194.480469 L 0.5 194.480469 Z M 0.5 0 " fill-opacity="1" fill-rule="nonzero"/><path fill="#ffffff" d="M 0.5 0 L 374.5 0 L 374.5 187 L 0.5 187 Z M 0.5 0 " fill-opacity="1" fill-rule="nonzero"/><path fill="#a70e1a" d="M 0.5 0 L 374.5 0 L 374.5 187 L 0.5 187 Z M 0.5 0 " fill-opacity="1" fill-rule="nonzero"/></g><g clip-path="url(#id2)"><path fill="#f0a52b" d="M 24.59375 -24.1875 L 260.214844 -24.1875 L 260.214844 211.433594 L 24.59375 211.433594 Z M 24.59375 -24.1875 " fill-opacity="1" fill-rule="nonzero"/></g><g fill="#ffffff" fill-opacity="1"><g transform="translate(32.064632, 130.676501)"><g><path d="M 60.125 -61.53125 L 60.125 -14.5 L 59.78125 -14.5 L 10.984375 -62.59375 L 10.546875 -62.59375 L 10.546875 0 L 14.59375 0 L 14.59375 -47.03125 L 14.9375 -47.03125 L 63.734375 1.0625 L 64.171875 1.0625 L 64.171875 -61.53125 Z M 60.125 -61.53125 "/></g></g></g><g fill="#ffffff" fill-opacity="1"><g transform="translate(106.77558, 130.676501)"><g><path d="M 10.546875 -61.53125 L 10.546875 0 L 50.28125 0 L 50.28125 -4.828125 L 18.546875 -4.828125 L 18.546875 -30.59375 L 45.796875 -30.59375 L 45.796875 -34.640625 L 18.546875 -34.640625 L 18.546875 -56.703125 L 50.28125 -56.703125 L 50.28125 -61.53125 Z M 10.546875 -61.53125 "/></g></g></g><g fill="#ffffff" fill-opacity="1"><g transform="translate(159.688517, 130.676501)"><g><path d="M 2.640625 -61.53125 L 24.4375 0 L 29.71875 0 L 46.5 -48.078125 L 46.9375 -48.078125 L 63.203125 0 L 68.390625 0 L 90.1875 -61.53125 L 86.140625 -61.53125 L 67.953125 -10.203125 L 67.59375 -10.203125 L 50.453125 -61.53125 L 46.671875 -61.53125 L 29.1875 -10.453125 L 28.828125 -10.453125 L 10.71875 -61.53125 Z M 2.640625 -61.53125 "/></g></g></g><g fill="#ffffff" fill-opacity="1"><g transform="translate(259.972616, 130.676501)"><g><path d="M 3.25 -15.5625 C 3.363281 -13.039062 4.019531 -10.753906 5.21875 -8.703125 C 6.425781 -6.648438 8.070312 -4.90625 10.15625 -3.46875 C 12.238281 -2.03125 14.6875 -0.914062 17.5 -0.125 C 20.3125 0.664062 23.382812 1.0625 26.71875 1.0625 C 30.125 1.0625 33.1875 0.648438 35.90625 -0.171875 C 38.632812 -0.992188 40.960938 -2.164062 42.890625 -3.6875 C 44.828125 -5.21875 46.320312 -7.066406 47.375 -9.234375 C 48.4375 -11.398438 48.96875 -13.800781 48.96875 -16.4375 C 48.96875 -20.070312 48.054688 -23.046875 46.234375 -25.359375 C 44.421875 -27.671875 42.148438 -29.601562 39.421875 -31.15625 C 36.703125 -32.71875 33.742188 -34.023438 30.546875 -35.078125 C 27.347656 -36.128906 24.382812 -37.238281 21.65625 -38.40625 C 18.9375 -39.582031 16.664062 -40.929688 14.84375 -42.453125 C 13.03125 -43.984375 12.125 -46.007812 12.125 -48.53125 C 12.125 -49.9375 12.429688 -51.253906 13.046875 -52.484375 C 13.671875 -53.710938 14.582031 -54.78125 15.78125 -55.6875 C 16.976562 -56.59375 18.457031 -57.320312 20.21875 -57.875 C 21.976562 -58.4375 24 -58.71875 26.28125 -58.71875 C 30.09375 -58.71875 33.332031 -57.910156 36 -56.296875 C 38.664062 -54.691406 40.234375 -52.160156 40.703125 -48.703125 L 46.671875 -48.703125 C 46.328125 -50.867188 45.535156 -52.816406 44.296875 -54.546875 C 43.066406 -56.273438 41.515625 -57.738281 39.640625 -58.9375 C 37.765625 -60.144531 35.640625 -61.054688 33.265625 -61.671875 C 30.898438 -62.285156 28.425781 -62.59375 25.84375 -62.59375 C 23.144531 -62.59375 20.578125 -62.238281 18.140625 -61.53125 C 15.710938 -60.832031 13.578125 -59.804688 11.734375 -58.453125 C 9.890625 -57.109375 8.425781 -55.410156 7.34375 -53.359375 C 6.257812 -51.304688 5.71875 -48.960938 5.71875 -46.328125 C 5.71875 -42.867188 6.59375 -40.082031 8.34375 -37.96875 C 10.101562 -35.863281 12.316406 -34.109375 14.984375 -32.703125 C 17.648438 -31.296875 20.535156 -30.09375 23.640625 -29.09375 C 26.753906 -28.101562 29.644531 -26.976562 32.3125 -25.71875 C 34.976562 -24.457031 37.1875 -22.914062 38.9375 -21.09375 C 40.695312 -19.28125 41.578125 -16.847656 41.578125 -13.796875 C 41.578125 -9.992188 40.1875 -7.210938 37.40625 -5.453125 C 34.625 -3.691406 30.914062 -2.8125 26.28125 -2.8125 C 22.59375 -2.8125 19.632812 -3.296875 17.40625 -4.265625 C 15.175781 -5.234375 13.472656 -6.390625 12.296875 -7.734375 C 11.128906 -9.078125 10.335938 -10.46875 9.921875 -11.90625 C 9.515625 -13.34375 9.285156 -14.5625 9.234375 -15.5625 Z M 3.25 -15.5625 "/></g></g></g></svg>