<svg xmlns="http://www.w3.org/2000/svg" xmlns:xlink="http://www.w3.org/1999/xlink" width="500" zoomAndPan="magnify" viewBox="0 0 375 374.999991" height="500" preserveAspectRatio="xMidYMid meet" version="1.0"><defs><g/><clipPath id="id1"><path d="M 24.160156 124.90625 L 260.410156 124.90625 L 260.410156 250.15625 L 24.160156 250.15625 Z M 24.160156 124.90625 " clip-rule="nonzero"/></clipPath></defs><rect x="-37.5" width="450" fill="#ffffff" y="-37.499999" height="449.999989" fill-opacity="1"/><rect x="-37.5" width="450" fill="#ffffff" y="-37.499999" height="449.999989" fill-opacity="1"/><rect x="-37.5" width="450" fill="#a70e1a" y="-37.499999" height="449.999989" fill-opacity="1"/><g clip-path="url(#id1)"><path fill="#f0a52b" d="M 24.160156 69.496094 L 260.410156 69.496094 L 260.410156 305.746094 L 24.160156 305.746094 Z M 24.160156 69.496094 " fill-opacity="1" fill-rule="nonzero"/></g><g fill="#ffffff" fill-opacity="1"><g transform="translate(31.650137, 224.774967)"><g><path d="M 60.28125 -61.703125 L 60.28125 -14.546875 L 59.9375 -14.546875 L 11.015625 -62.75 L 10.578125 -62.75 L 10.578125 0 L 14.625 0 L 14.625 -47.15625 L 14.984375 -47.15625 L 63.90625 1.0625 L 64.34375 1.0625 L 64.34375 -61.703125 Z M 60.28125 -61.703125 "/></g></g></g><g fill="#ffffff" fill-opacity="1"><g transform="translate(106.560314, 224.774967)"><g><path d="M 10.578125 -61.703125 L 10.578125 0 L 50.421875 0 L 50.421875 -4.84375 L 18.59375 -4.84375 L 18.59375 -30.671875 L 45.921875 -30.671875 L 45.921875 -34.734375 L 18.59375 -34.734375 L 18.59375 -56.84375 L 50.421875 -56.84375 L 50.421875 -61.703125 Z M 10.578125 -61.703125 "/></g></g></g><g fill="#ffffff" fill-opacity="1"><g transform="translate(159.614353, 224.774967)"><g><path d="M 2.640625 -61.703125 L 24.5 0 L 29.796875 0 L 46.625 -48.21875 L 47.0625 -48.21875 L 63.375 0 L 68.578125 0 L 90.4375 -61.703125 L 86.375 -61.703125 L 68.125 -10.21875 L 67.78125 -10.21875 L 50.59375 -61.703125 L 46.796875 -61.703125 L 29.265625 -10.484375 L 28.90625 -10.484375 L 10.75 -61.703125 Z M 2.640625 -61.703125 "/></g></g></g><g fill="#ffffff" fill-opacity="1"><g transform="translate(260.165877, 224.774967)"><g><path d="M 3.265625 -15.59375 C 3.378906 -13.070312 4.035156 -10.78125 5.234375 -8.71875 C 6.441406 -6.664062 8.085938 -4.921875 10.171875 -3.484375 C 12.265625 -2.046875 14.71875 -0.925781 17.53125 -0.125 C 20.351562 0.664062 23.441406 1.0625 26.796875 1.0625 C 30.203125 1.0625 33.269531 0.648438 36 -0.171875 C 38.738281 -0.992188 41.078125 -2.171875 43.015625 -3.703125 C 44.953125 -5.234375 46.445312 -7.082031 47.5 -9.25 C 48.5625 -11.425781 49.09375 -13.835938 49.09375 -16.484375 C 49.09375 -20.128906 48.179688 -23.109375 46.359375 -25.421875 C 44.535156 -27.742188 42.257812 -29.679688 39.53125 -31.234375 C 36.800781 -32.796875 33.832031 -34.101562 30.625 -35.15625 C 27.425781 -36.21875 24.457031 -37.335938 21.71875 -38.515625 C 18.988281 -39.691406 16.710938 -41.039062 14.890625 -42.5625 C 13.066406 -44.09375 12.15625 -46.125 12.15625 -48.65625 C 12.15625 -50.0625 12.460938 -51.378906 13.078125 -52.609375 C 13.703125 -53.847656 14.613281 -54.921875 15.8125 -55.828125 C 17.019531 -56.742188 18.503906 -57.476562 20.265625 -58.03125 C 22.035156 -58.59375 24.066406 -58.875 26.359375 -58.875 C 30.171875 -58.875 33.414062 -58.066406 36.09375 -56.453125 C 38.769531 -54.835938 40.34375 -52.296875 40.8125 -48.828125 L 46.796875 -48.828125 C 46.453125 -51.003906 45.660156 -52.957031 44.421875 -54.6875 C 43.191406 -56.425781 41.632812 -57.894531 39.75 -59.09375 C 37.875 -60.300781 35.742188 -61.210938 33.359375 -61.828125 C 30.984375 -62.441406 28.5 -62.75 25.90625 -62.75 C 23.207031 -62.75 20.640625 -62.394531 18.203125 -61.6875 C 15.765625 -60.988281 13.617188 -59.960938 11.765625 -58.609375 C 9.910156 -57.265625 8.441406 -55.5625 7.359375 -53.5 C 6.273438 -51.445312 5.734375 -49.097656 5.734375 -46.453125 C 5.734375 -42.984375 6.613281 -40.191406 8.375 -38.078125 C 10.132812 -35.960938 12.347656 -34.195312 15.015625 -32.78125 C 17.691406 -31.375 20.585938 -30.171875 23.703125 -29.171875 C 26.816406 -28.171875 29.710938 -27.039062 32.390625 -25.78125 C 35.066406 -24.519531 37.285156 -22.976562 39.046875 -21.15625 C 40.804688 -19.332031 41.6875 -16.894531 41.6875 -13.84375 C 41.6875 -10.019531 40.289062 -7.226562 37.5 -5.46875 C 34.707031 -3.707031 30.992188 -2.828125 26.359375 -2.828125 C 22.648438 -2.828125 19.679688 -3.3125 17.453125 -4.28125 C 15.222656 -5.25 13.519531 -6.40625 12.34375 -7.75 C 11.164062 -9.101562 10.367188 -10.5 9.953125 -11.9375 C 9.546875 -13.382812 9.3125 -14.601562 9.25 -15.59375 Z M 3.265625 -15.59375 "/></g></g></g></svg>